<?xml version="1.0" encoding="UTF-8"?>
<!DOCTYPE svg PUBLIC "-//W3C//DTD SVG 1.1//EN" "http://www.w3.org/Graphics/SVG/1.1/DTD/svg11.dtd">
<svg xmlns="http://www.w3.org/2000/svg" version="1.1" width="512px" height="512px" style="shape-rendering:geometricPrecision; text-rendering:geometricPrecision; image-rendering:optimizeQuality; fill-rule:evenodd; clip-rule:evenodd" xmlns:xlink="http://www.w3.org/1999/xlink">
<g><path style="opacity:0.931" fill="#fafafa" d="M 147.5,102.5 C 219.501,102.333 291.501,102.5 363.5,103C 380.169,105.233 386.835,114.4 383.5,130.5C 374.638,135.485 369.471,132.818 368,122.5C 366.681,120.513 364.848,119.346 362.5,119C 291.167,118.333 219.833,118.333 148.5,119C 142.95,120.254 140.45,123.754 141,129.5C 135.138,135.194 130.138,134.527 126,127.5C 125.819,112.848 132.986,104.514 147.5,102.5 Z"/></g>
<g><path style="opacity:0.932" fill="#fafafa" d="M 136.5,136.5 C 215.834,136.333 295.167,136.5 374.5,137C 391.095,139.225 397.928,148.392 395,164.5C 390.833,168.417 386.667,168.417 382.5,164.5C 381.35,161.193 380.017,158.026 378.5,155C 376.608,154.027 374.608,153.36 372.5,153C 294.5,152.333 216.5,152.333 138.5,153C 136.392,153.36 134.392,154.027 132.5,155C 130.983,158.026 129.65,161.193 128.5,164.5C 123.241,168.725 118.741,168.058 115,162.5C 113.54,154.212 116.04,147.378 122.5,142C 127.017,139.445 131.684,137.612 136.5,136.5 Z"/></g>
<g><path style="opacity:0.935" fill="#fafafa" d="M 139.5,171.5 C 216.834,171.333 294.167,171.5 371.5,172C 391.735,174.901 402.068,186.568 402.5,207C 398.594,266.52 394.427,326.02 390,385.5C 386.418,397.415 378.585,404.915 366.5,408C 292.5,408.667 218.5,408.667 144.5,408C 132.415,404.915 124.582,397.415 121,385.5C 115.936,322.881 111.936,260.215 109,197.5C 113.564,182.092 123.731,173.426 139.5,171.5 Z M 139.5,187.5 C 216.834,187.333 294.167,187.5 371.5,188C 381.917,190.336 386.917,196.836 386.5,207.5C 382.667,263.167 378.833,318.833 375,374.5C 375.524,383.304 371.69,389.138 363.5,392C 291.5,392.667 219.5,392.667 147.5,392C 139.613,389.41 135.779,383.91 136,375.5C 131.712,317.184 128.046,258.851 125,200.5C 127.524,193.471 132.357,189.137 139.5,187.5 Z M 254.5,226.5 C 283.903,226.783 307.07,238.783 324,262.5C 335.543,282.034 335.21,301.368 323,320.5C 301.653,349.586 273.153,361.086 237.5,355C 210.202,348.028 191.369,331.528 181,305.5C 175.799,280.444 183.299,259.944 203.5,244C 218.899,233.257 235.899,227.423 254.5,226.5 Z M 252.5,283.5 C 261.07,282.583 265.237,286.25 265,294.5C 258.667,301.167 252.333,301.167 246,294.5C 245.025,288.975 247.192,285.309 252.5,283.5 Z"/></g>
<g><path style="opacity:0.927" fill="#fafafa" d="M 240.5,211.5 C 276.861,207.559 307.361,218.893 332,245.5C 358.069,286.424 352.236,322.258 314.5,353C 273.099,380.962 232.433,379.962 192.5,350C 164.444,326.178 156.611,297.011 169,262.5C 184.334,233.583 208.167,216.583 240.5,211.5 Z M 254.5,226.5 C 235.899,227.423 218.899,233.257 203.5,244C 183.299,259.944 175.799,280.444 181,305.5C 191.369,331.528 210.202,348.028 237.5,355C 273.153,361.086 301.653,349.586 323,320.5C 335.21,301.368 335.543,282.034 324,262.5C 307.07,238.783 283.903,226.783 254.5,226.5 Z M 252.5,283.5 C 247.192,285.309 245.025,288.975 246,294.5C 252.333,301.167 258.667,301.167 265,294.5C 265.237,286.25 261.07,282.583 252.5,283.5 Z"/></g>
<g><path style="opacity:0.927" fill="none" d="M 250.5,267.5 C 264.833,266.075 274.999,271.742 281,284.5C 283.029,303.317 274.529,313.65 255.5,315.5C 233.28,312.703 225.446,300.703 232,279.5C 236.668,273.089 242.835,269.089 250.5,267.5 Z M 252.5,283.5 C 247.192,285.309 245.025,288.975 246,294.5C 252.333,301.167 258.667,301.167 265,294.5C 265.237,286.25 261.07,282.583 252.5,283.5 Z"/></g>
</svg>
