<?xml version="1.0" encoding="UTF-8"?>
<!DOCTYPE svg PUBLIC "-//W3C//DTD SVG 1.1//EN" "http://www.w3.org/Graphics/SVG/1.1/DTD/svg11.dtd">
<svg xmlns="http://www.w3.org/2000/svg" version="1.1" width="53px" height="49px" style="shape-rendering:geometricPrecision; text-rendering:geometricPrecision; image-rendering:optimizeQuality; fill-rule:evenodd; clip-rule:evenodd" xmlns:xlink="http://www.w3.org/1999/xlink">
<g><path style="opacity:1" fill="none" d="M -0.5,-0.5 C 17.1667,-0.5 34.8333,-0.5 52.5,-0.5C 52.5,15.8333 52.5,32.1667 52.5,48.5C 34.8333,48.5 17.1667,48.5 -0.5,48.5C -0.5,32.1667 -0.5,15.8333 -0.5,-0.5 Z"/></g>
<g><path style="opacity:1" fill="#85c1e9" d="M 12.5,11.5 C 13.8197,14.428 14.4864,17.7614 14.5,21.5C 14.1667,24.8333 13.8333,28.1667 13.5,31.5C 12.5033,24.8665 12.17,18.1998 12.5,11.5 Z"/></g>
<g><path style="opacity:1" fill="#85c1e9" d="M 18.5,11.5 C 19.8197,14.428 20.4864,17.7614 20.5,21.5C 20.1667,24.8333 19.8333,28.1667 19.5,31.5C 18.5033,24.8665 18.17,18.1998 18.5,11.5 Z"/></g>
<g><path style="opacity:1" fill="#85c1e9" d="M 24.5,11.5 C 27.3428,12.1717 29.8428,13.505 32,15.5C 32.4994,20.8229 32.666,26.1563 32.5,31.5C 29.8333,31.5 27.1667,31.5 24.5,31.5C 24.5,24.8333 24.5,18.1667 24.5,11.5 Z"/></g>
<g><path style="opacity:1" fill="#000" d="M 26.5,14.5 C 27.7206,15.0283 28.8873,15.695 30,16.5C 30.499,20.8206 30.6657,25.1539 30.5,29.5C 29.1667,29.5 27.8333,29.5 26.5,29.5C 26.5,24.5 26.5,19.5 26.5,14.5 Z"/></g>
</svg>
